<?xml version="1.0" encoding="iso-8859-1"?>
<!-- Uploaded to: SVG Repo, www.svgrepo.com, Generator: SVG Repo Mixer Tools -->
<svg version="1.1" id="Layer_1" xmlns="http://www.w3.org/2000/svg" xmlns:xlink="http://www.w3.org/1999/xlink" 
	 viewBox="0 0 512 512" xml:space="preserve">
<polygon style="fill:#AFB6BB;" points="477.691,192.66 477.691,382.68 451.299,382.68 60.701,382.68 34.309,382.68 34.309,192.66 
	60.701,192.66 451.299,192.66 "/>
<polygon style="fill:#FDB51E;" points="450.982,81.814 345.732,81.814 345.732,7.918 "/>
<g>
	<rect x="60.701" y="382.68" style="fill:#595E62;" width="390.598" height="121.402"/>
	<polygon style="fill:#595E62;" points="451.299,82.026 451.299,192.66 60.701,192.66 60.701,7.918 345.732,7.918 345.732,81.814 
		450.982,81.814 	"/>
</g>
<g>
	<rect x="60.701" y="382.68" style="fill:#43474B;" width="195.299" height="121.402"/>
	<rect x="60.701" y="7.918" style="fill:#43474B;" width="195.299" height="184.742"/>
</g>
<polygon style="fill:#A0A7AB;" points="477.691,192.66 451.299,192.66 60.701,192.66 34.309,192.66 34.309,292.948 477.691,292.948 
	"/>
<g>
	<rect x="113.485" y="432.825" style="fill:#FFFFFF;" width="285.031" height="15.835"/>
	<rect x="435.464" y="216.412" style="fill:#FFFFFF;" width="21.113" height="15.835"/>
	<rect x="435.464" y="343.093" style="fill:#FFFFFF;" width="21.113" height="15.835"/>
	<rect x="55.423" y="343.093" style="fill:#FFFFFF;" width="21.113" height="15.835"/>
	<rect x="55.423" y="216.412" style="fill:#FFFFFF;" width="21.113" height="15.835"/>
	<path style="fill:#FFFFFF;" d="M208.549,50.144h-95.118L92.74,78.36l68.25,76.006l68.25-76.006L208.549,50.144z M121.456,65.979
		h79.068l8.339,11.372l-6.376,7.103h-82.992l-6.377-7.103L121.456,65.979z M133.713,100.289h54.553l-27.276,30.376L133.713,100.289z
		"/>
</g>
<path d="M485.608,184.742h-26.392V77.791L348.234,0H52.784v184.742H26.392v205.856h26.392V512h406.433V390.598h26.392V184.742z
	 M353.65,23.151l72.277,50.746H353.65V23.151z M68.619,15.835h269.196v73.897h105.567v95.01H68.619V15.835z M443.381,496.165H68.619
	V390.598h374.763V496.165z M469.773,374.763H42.227V200.577h427.546V374.763z"/>
<path d="M96.573,313.344H83.044c-4.958,0-8.994-4.035-8.994-8.994H58.215c0,13.691,11.138,24.829,24.829,24.829h13.528
	c13.691,0,24.829-11.138,24.829-24.829s-11.138-24.829-24.829-24.829H83.044c-4.958,0-8.994-4.035-8.994-8.994
	c0-4.958,4.035-8.992,8.994-8.992h13.528c4.958,0,8.994,4.034,8.994,8.992h15.835c0-13.69-11.138-24.827-24.829-24.827H83.044
	c-13.691,0-24.829,11.138-24.829,24.827c0,13.691,11.138,24.829,24.829,24.829h13.528c4.958,0,8.994,4.035,8.994,8.994
	C105.567,309.309,101.532,313.344,96.573,313.344z"/>
<polygon points="153.072,295.332 157.53,290.874 178.194,333.364 192.435,326.439 169.378,279.026 192.388,256.016 181.191,244.817 
	153.072,272.936 153.072,242.804 137.237,242.804 137.237,332.536 153.072,332.536 "/>
<polygon points="242.912,313.344 217.007,313.344 217.007,295.356 242.912,295.356 242.912,279.521 217.007,279.521 
	217.007,261.535 242.912,261.535 242.912,245.7 201.172,245.7 201.172,329.179 242.912,329.179 "/>
<polygon points="271.963,332.536 287.798,332.536 287.798,261.278 308.784,261.278 308.784,245.443 250.722,245.443 
	250.722,261.278 271.963,261.278 "/>
<path d="M344.707,331.155c18.354,0,33.284-14.39,33.284-32.077h-15.835c0,8.955-7.828,16.242-17.449,16.242
	s-17.449-7.285-17.449-16.24v-19.327c0-8.955,7.828-16.241,17.449-16.241s17.449,7.285,17.449,16.241h15.835
	c0-17.687-14.931-32.077-33.284-32.077s-33.284,14.39-33.284,32.077v19.327C311.423,316.765,326.354,331.155,344.707,331.155z"/>
<polygon points="406.433,295.356 437.949,295.356 437.949,328.026 453.784,328.026 453.784,246.853 437.949,246.853 
	437.949,279.521 406.433,279.521 406.433,246.853 390.598,246.853 390.598,328.026 406.433,328.026 "/>
</svg>